<?xml version="1.0" encoding="UTF-8" standalone="no"?><!DOCTYPE svg PUBLIC "-//W3C//DTD SVG 1.1//EN" "http://www.w3.org/Graphics/SVG/1.1/DTD/svg11.dtd"><svg width="100%" height="100%" viewBox="0 0 82 40" version="1.1" xmlns="http://www.w3.org/2000/svg" xmlns:xlink="http://www.w3.org/1999/xlink" xml:space="preserve" xmlns:serif="http://www.serif.com/" style="fill-rule:evenodd;clip-rule:evenodd;stroke-linejoin:round;stroke-miterlimit:2;"><g><path d="M32.173,18.715c0,0.569 -0.144,1.063 -0.432,1.48c-0.288,0.417 -0.692,0.741 -1.212,0.97c-0.521,0.23 -1.128,0.344 -1.822,0.344c-0.469,0 -0.904,-0.048 -1.305,-0.145c-0.401,-0.097 -0.745,-0.234 -1.034,-0.411l0.088,-0.494c0.158,0.104 0.338,0.192 0.539,0.265c0.202,0.073 0.417,0.128 0.644,0.166c0.228,0.038 0.459,0.057 0.694,0.057c0.45,0 0.847,-0.089 1.191,-0.268c0.344,-0.179 0.612,-0.438 0.806,-0.778c0.194,-0.34 0.291,-0.748 0.291,-1.223c0,-0.555 -0.117,-1.039 -0.351,-1.453c-0.234,-0.413 -0.565,-0.734 -0.995,-0.963c-0.43,-0.229 -0.941,-0.343 -1.533,-0.343l-0.702,0l0,7.812c0,0.095 0.027,0.174 0.082,0.239c0.055,0.064 0.138,0.104 0.249,0.12l0.674,0.078c0.099,0.015 0.17,0.045 0.212,0.089c0.042,0.044 0.063,0.106 0.063,0.186c0,0.074 -0.026,0.133 -0.078,0.178c-0.052,0.045 -0.135,0.067 -0.251,0.067l-3.199,0c-0.113,0 -0.196,-0.022 -0.249,-0.067c-0.053,-0.045 -0.08,-0.104 -0.08,-0.178c0,-0.136 0.085,-0.227 0.254,-0.273l0.436,-0.081c0.107,-0.026 0.189,-0.068 0.246,-0.128c0.057,-0.059 0.085,-0.137 0.085,-0.231l0,-7.396c0,-0.095 -0.028,-0.172 -0.085,-0.231c-0.057,-0.059 -0.139,-0.102 -0.246,-0.128l-0.436,-0.081c-0.169,-0.046 -0.254,-0.137 -0.254,-0.273c0,-0.078 0.027,-0.138 0.08,-0.181c0.053,-0.043 0.136,-0.064 0.249,-0.064l2.986,0c0.923,0 1.712,0.144 2.366,0.431c0.654,0.287 1.155,0.682 1.504,1.185c0.349,0.503 0.523,1.076 0.523,1.72Z" style="fill-rule:nonzero;"/><path d="M37.029,23.867l0,-0.133l-0.085,-0.043l0,-3.794c0,-0.384 -0.097,-0.678 -0.29,-0.883c-0.193,-0.204 -0.467,-0.307 -0.822,-0.307c-0.336,0 -0.589,0.07 -0.758,0.209c-0.169,0.139 -0.253,0.306 -0.253,0.5l0,0.521c0,0.216 -0.07,0.381 -0.211,0.496c-0.141,0.115 -0.335,0.172 -0.583,0.172c-0.217,0 -0.383,-0.056 -0.498,-0.168c-0.115,-0.112 -0.172,-0.263 -0.172,-0.452c0,-0.274 0.107,-0.54 0.321,-0.798c0.214,-0.258 0.525,-0.471 0.933,-0.638c0.408,-0.167 0.903,-0.251 1.486,-0.251c0.756,0 1.319,0.162 1.688,0.487c0.369,0.325 0.553,0.761 0.553,1.307l0,3.598c0,0.143 0.028,0.247 0.083,0.313c0.055,0.066 0.131,0.099 0.228,0.099c0.11,0 0.189,-0.025 0.237,-0.076c0.048,-0.051 0.089,-0.1 0.124,-0.148c0.023,-0.028 0.047,-0.053 0.071,-0.074c0.024,-0.021 0.054,-0.031 0.09,-0.031c0.046,0 0.081,0.017 0.103,0.051c0.023,0.034 0.034,0.08 0.034,0.138c0,0.129 -0.044,0.26 -0.131,0.396c-0.087,0.135 -0.216,0.25 -0.386,0.343c-0.17,0.094 -0.381,0.14 -0.633,0.14c-0.351,0 -0.627,-0.084 -0.828,-0.251c-0.201,-0.167 -0.301,-0.409 -0.301,-0.727Zm-3.972,-0.561c0,-0.528 0.236,-0.96 0.707,-1.296c0.471,-0.337 1.125,-0.505 1.961,-0.505c0.302,0 0.578,0.028 0.831,0.083c0.252,0.055 0.475,0.127 0.668,0.215l-0.106,0.367c-0.184,-0.077 -0.372,-0.141 -0.566,-0.191c-0.194,-0.05 -0.405,-0.075 -0.632,-0.075c-0.441,0 -0.785,0.105 -1.034,0.314c-0.249,0.209 -0.373,0.496 -0.373,0.859c0,0.356 0.101,0.628 0.304,0.818c0.203,0.19 0.462,0.285 0.777,0.285c0.296,0 0.582,-0.068 0.857,-0.204c0.275,-0.136 0.512,-0.329 0.711,-0.579l0.14,0.317c-0.263,0.36 -0.603,0.638 -1.018,0.835c-0.415,0.197 -0.854,0.295 -1.318,0.295c-0.562,0 -1.021,-0.139 -1.376,-0.417c-0.355,-0.278 -0.533,-0.652 -0.533,-1.122Z" style="fill-rule:nonzero;"/><path d="M40.561,18.988l-0.349,-0.09c-0.113,-0.032 -0.191,-0.068 -0.233,-0.109c-0.042,-0.041 -0.063,-0.088 -0.063,-0.142c0,-0.07 0.025,-0.123 0.074,-0.16c0.049,-0.037 0.116,-0.055 0.2,-0.055l0.422,0c0.119,0 0.215,-0.019 0.288,-0.057c0.073,-0.038 0.138,-0.108 0.195,-0.21l0.525,-0.966c0.067,-0.104 0.133,-0.179 0.2,-0.226c0.067,-0.047 0.136,-0.071 0.209,-0.071c0.078,0 0.138,0.024 0.181,0.072c0.043,0.048 0.064,0.116 0.064,0.204l0,5.861c0,0.305 0.063,0.538 0.19,0.698c0.127,0.161 0.302,0.241 0.527,0.241c0.163,0 0.29,-0.028 0.381,-0.083c0.091,-0.055 0.162,-0.119 0.214,-0.192c0.051,-0.073 0.1,-0.137 0.146,-0.192c0.046,-0.055 0.104,-0.082 0.173,-0.082c0.057,0 0.1,0.018 0.131,0.055c0.031,0.037 0.046,0.096 0.046,0.178c0,0.191 -0.069,0.373 -0.206,0.547c-0.137,0.174 -0.328,0.316 -0.571,0.428c-0.243,0.111 -0.521,0.167 -0.833,0.167c-0.491,0 -0.882,-0.127 -1.171,-0.382c-0.29,-0.255 -0.434,-0.64 -0.434,-1.157l0,-3.889c0,-0.11 -0.023,-0.194 -0.068,-0.251c-0.045,-0.058 -0.124,-0.103 -0.237,-0.137Zm1.08,-0.024l0,-0.533l2.096,0c0.092,0 0.163,0.017 0.211,0.052c0.049,0.035 0.073,0.086 0.073,0.154c0,0.094 -0.047,0.172 -0.142,0.234c-0.095,0.062 -0.244,0.093 -0.448,0.093l-1.79,0Z" style="fill-rule:nonzero;"/><path d="M45.427,18.988l-0.349,-0.09c-0.113,-0.032 -0.191,-0.068 -0.233,-0.109c-0.042,-0.041 -0.063,-0.088 -0.063,-0.142c0,-0.07 0.025,-0.123 0.074,-0.16c0.049,-0.037 0.116,-0.055 0.2,-0.055l0.422,0c0.119,0 0.215,-0.019 0.288,-0.057c0.073,-0.038 0.138,-0.108 0.195,-0.21l0.525,-0.966c0.067,-0.104 0.133,-0.179 0.2,-0.226c0.067,-0.047 0.136,-0.071 0.209,-0.071c0.078,0 0.138,0.024 0.181,0.072c0.043,0.048 0.064,0.116 0.064,0.204l0,5.861c0,0.305 0.063,0.538 0.19,0.698c0.127,0.161 0.302,0.241 0.527,0.241c0.163,0 0.29,-0.028 0.381,-0.083c0.091,-0.055 0.162,-0.119 0.214,-0.192c0.051,-0.073 0.1,-0.137 0.146,-0.192c0.046,-0.055 0.104,-0.082 0.173,-0.082c0.057,0 0.1,0.018 0.131,0.055c0.031,0.037 0.046,0.096 0.046,0.178c0,0.191 -0.069,0.373 -0.206,0.547c-0.137,0.174 -0.328,0.316 -0.571,0.428c-0.243,0.111 -0.521,0.167 -0.833,0.167c-0.491,0 -0.882,-0.127 -1.171,-0.382c-0.29,-0.255 -0.434,-0.64 -0.434,-1.157l0,-3.889c0,-0.11 -0.023,-0.194 -0.068,-0.251c-0.045,-0.058 -0.124,-0.103 -0.237,-0.137Zm1.08,-0.024l0,-0.533l2.096,0c0.092,0 0.163,0.017 0.211,0.052c0.049,0.035 0.073,0.086 0.073,0.154c0,0.094 -0.047,0.172 -0.142,0.234c-0.095,0.062 -0.244,0.093 -0.448,0.093l-1.79,0Z" style="fill-rule:nonzero;"/><path d="M55.767,20.795c0,0.207 -0.061,0.365 -0.183,0.474c-0.122,0.11 -0.3,0.164 -0.535,0.164l-4.255,0l0,-0.432l3.2,0c0.223,0 0.334,-0.098 0.334,-0.294c0,-0.591 -0.128,-1.052 -0.384,-1.383c-0.256,-0.331 -0.6,-0.497 -1.031,-0.497c-0.339,0 -0.637,0.096 -0.894,0.289c-0.257,0.192 -0.458,0.464 -0.603,0.816c-0.145,0.352 -0.217,0.765 -0.217,1.24c0,0.881 0.212,1.55 0.635,2.006c0.423,0.456 0.978,0.684 1.663,0.684c0.439,0 0.82,-0.098 1.143,-0.295c0.323,-0.197 0.552,-0.457 0.687,-0.781c0.057,-0.075 0.104,-0.127 0.143,-0.155c0.039,-0.028 0.081,-0.042 0.127,-0.042c0.062,0 0.107,0.026 0.134,0.079c0.028,0.053 0.04,0.116 0.037,0.188c-0.027,0.363 -0.159,0.695 -0.396,0.998c-0.238,0.302 -0.555,0.543 -0.952,0.722c-0.397,0.179 -0.848,0.269 -1.355,0.269c-0.625,0 -1.176,-0.131 -1.653,-0.392c-0.477,-0.262 -0.849,-0.63 -1.116,-1.104c-0.267,-0.474 -0.4,-1.03 -0.4,-1.668c0,-0.651 0.129,-1.231 0.388,-1.739c0.259,-0.509 0.628,-0.91 1.107,-1.204c0.479,-0.294 1.047,-0.442 1.705,-0.442c0.546,0 1.019,0.106 1.419,0.319c0.4,0.212 0.709,0.506 0.926,0.881c0.217,0.375 0.326,0.808 0.326,1.3Z" style="fill-rule:nonzero;"/><path d="M58.897,21.215c0,-0.631 0.093,-1.163 0.28,-1.598c0.187,-0.435 0.429,-0.764 0.728,-0.987c0.299,-0.223 0.617,-0.335 0.954,-0.335c0.403,0 0.717,0.111 0.939,0.333c0.223,0.222 0.334,0.528 0.334,0.92c0,0.307 -0.065,0.539 -0.196,0.697c-0.13,0.158 -0.299,0.237 -0.507,0.237c-0.209,0 -0.372,-0.059 -0.487,-0.176c-0.115,-0.117 -0.173,-0.28 -0.173,-0.488l0,-0.227c-0.002,-0.15 -0.038,-0.261 -0.108,-0.335c-0.071,-0.073 -0.186,-0.11 -0.348,-0.11c-0.192,0 -0.38,0.076 -0.561,0.228c-0.182,0.152 -0.33,0.38 -0.446,0.684c-0.116,0.304 -0.174,0.689 -0.174,1.153l-0.235,0.003Zm0.161,-2.517l0.075,1.542l0,3.521c0,0.113 0.026,0.198 0.078,0.257c0.052,0.059 0.141,0.097 0.266,0.115l0.597,0.084c0.093,0.013 0.163,0.04 0.209,0.08c0.046,0.04 0.069,0.096 0.069,0.168c0,0.07 -0.027,0.125 -0.08,0.166c-0.053,0.04 -0.131,0.061 -0.233,0.061l-2.824,0c-0.103,0 -0.179,-0.02 -0.228,-0.061c-0.049,-0.04 -0.074,-0.095 -0.074,-0.163c0,-0.057 0.019,-0.104 0.057,-0.143c0.038,-0.039 0.096,-0.069 0.174,-0.092l0.314,-0.071c0.088,-0.023 0.154,-0.064 0.2,-0.124c0.045,-0.06 0.068,-0.151 0.068,-0.272l0,-4.105c0,-0.102 -0.017,-0.176 -0.051,-0.221c-0.034,-0.045 -0.09,-0.072 -0.168,-0.081l-0.45,-0.019c-0.077,-0.012 -0.132,-0.035 -0.165,-0.067c-0.033,-0.032 -0.049,-0.074 -0.049,-0.126c0,-0.059 0.019,-0.107 0.058,-0.146c0.039,-0.039 0.108,-0.075 0.207,-0.109l1.075,-0.383c0.177,-0.066 0.308,-0.109 0.395,-0.13c0.087,-0.021 0.156,-0.031 0.208,-0.031c0.084,0 0.148,0.027 0.19,0.08c0.043,0.054 0.07,0.144 0.082,0.271Z" style="fill-rule:nonzero;"/><path d="M65.172,18.698l0,5.063c0,0.121 0.023,0.212 0.068,0.273c0.045,0.06 0.112,0.103 0.2,0.128l0.293,0.069c0.141,0.047 0.212,0.122 0.212,0.226c0,0.156 -0.104,0.234 -0.313,0.234l-2.376,0c-0.103,0 -0.179,-0.02 -0.228,-0.061c-0.049,-0.04 -0.074,-0.095 -0.074,-0.163c0,-0.057 0.019,-0.104 0.057,-0.143c0.038,-0.039 0.096,-0.069 0.174,-0.092l0.314,-0.071c0.088,-0.026 0.154,-0.068 0.2,-0.126c0.045,-0.059 0.068,-0.149 0.068,-0.27l0,-4.115c0,-0.102 -0.017,-0.176 -0.051,-0.221c-0.034,-0.045 -0.09,-0.072 -0.168,-0.081l-0.45,-0.019c-0.077,-0.012 -0.132,-0.035 -0.165,-0.067c-0.033,-0.032 -0.049,-0.074 -0.049,-0.126c0,-0.059 0.019,-0.107 0.057,-0.145c0.038,-0.038 0.107,-0.075 0.208,-0.11l1.093,-0.388c0.141,-0.051 0.256,-0.088 0.345,-0.111c0.089,-0.023 0.17,-0.034 0.241,-0.034c0.114,0 0.2,0.031 0.258,0.094c0.058,0.063 0.086,0.148 0.086,0.257Zm-0.192,1.415l-0.263,-0.266l0.291,-0.254c0.532,-0.479 0.998,-0.815 1.398,-1.008c0.4,-0.193 0.782,-0.29 1.147,-0.29c0.565,0 1.019,0.177 1.363,0.531c0.344,0.354 0.515,0.833 0.515,1.438l0,3.473c0,0.129 0.025,0.227 0.076,0.292c0.051,0.065 0.122,0.111 0.216,0.136l0.278,0.067c0.078,0.023 0.136,0.054 0.174,0.092c0.038,0.039 0.057,0.086 0.057,0.143c0,0.068 -0.024,0.123 -0.072,0.163c-0.048,0.04 -0.125,0.061 -0.23,0.061l-2.384,0c-0.208,0 -0.313,-0.078 -0.313,-0.234c0,-0.104 0.069,-0.179 0.207,-0.226l0.309,-0.069c0.096,-0.025 0.166,-0.07 0.21,-0.136c0.044,-0.066 0.066,-0.162 0.066,-0.289l0,-3.258c0,-0.443 -0.11,-0.775 -0.33,-0.996c-0.22,-0.22 -0.511,-0.331 -0.874,-0.331c-0.223,0 -0.465,0.057 -0.724,0.17c-0.259,0.114 -0.535,0.295 -0.827,0.544l-0.289,0.246Z" style="fill-rule:nonzero;"/><path d="M73.479,15.23l0,8.53c0,0.121 0.023,0.213 0.068,0.274c0.045,0.061 0.112,0.103 0.2,0.126l0.298,0.067c0.081,0.023 0.141,0.054 0.18,0.092c0.039,0.039 0.059,0.088 0.059,0.147c0,0.068 -0.025,0.123 -0.076,0.163c-0.051,0.04 -0.129,0.061 -0.234,0.061l-2.41,0c-0.103,0 -0.179,-0.02 -0.228,-0.061c-0.049,-0.04 -0.074,-0.095 -0.074,-0.163c0,-0.057 0.019,-0.104 0.057,-0.143c0.038,-0.039 0.096,-0.069 0.174,-0.092l0.314,-0.071c0.088,-0.026 0.154,-0.068 0.2,-0.126c0.045,-0.059 0.068,-0.149 0.068,-0.27l0,-7.583c0,-0.102 -0.017,-0.176 -0.051,-0.221c-0.034,-0.045 -0.09,-0.072 -0.168,-0.081l-0.45,-0.019c-0.077,-0.012 -0.132,-0.035 -0.165,-0.067c-0.033,-0.032 -0.049,-0.074 -0.049,-0.126c0,-0.059 0.019,-0.107 0.057,-0.145c0.038,-0.038 0.107,-0.075 0.208,-0.11l1.093,-0.388c0.146,-0.053 0.264,-0.091 0.352,-0.112c0.088,-0.022 0.163,-0.033 0.224,-0.033c0.12,0 0.209,0.031 0.267,0.094c0.059,0.063 0.088,0.148 0.088,0.257Z" style="fill-rule:nonzero;"/><path d="M78.989,23.902l-0.725,1.445l-2.578,-5.929c-0.075,-0.181 -0.154,-0.303 -0.236,-0.366c-0.082,-0.063 -0.221,-0.115 -0.418,-0.157c-0.086,-0.023 -0.146,-0.053 -0.179,-0.09c-0.033,-0.037 -0.05,-0.086 -0.05,-0.146c0,-0.071 0.027,-0.127 0.08,-0.167c0.053,-0.04 0.126,-0.061 0.218,-0.061l2.68,0c0.093,0 0.166,0.02 0.219,0.059c0.053,0.039 0.08,0.094 0.08,0.165c0,0.06 -0.019,0.11 -0.057,0.148c-0.038,0.039 -0.104,0.068 -0.197,0.087l-0.275,0.045c-0.217,0.04 -0.344,0.11 -0.38,0.21c-0.036,0.1 -0.002,0.279 0.104,0.538l1.715,4.219Zm-1.14,2.075l0.529,-1.316l0.184,-0.368l1.818,-4.557c0.105,-0.257 0.139,-0.441 0.102,-0.553c-0.036,-0.111 -0.165,-0.188 -0.387,-0.229l-0.291,-0.053c-0.092,-0.02 -0.158,-0.05 -0.197,-0.091c-0.039,-0.041 -0.059,-0.093 -0.059,-0.156c0,-0.071 0.027,-0.126 0.08,-0.165c0.053,-0.039 0.126,-0.059 0.219,-0.059l1.909,0c0.092,0 0.165,0.02 0.218,0.061c0.053,0.04 0.08,0.096 0.08,0.167c0,0.053 -0.018,0.099 -0.054,0.138c-0.036,0.039 -0.1,0.073 -0.194,0.101c-0.212,0.052 -0.368,0.123 -0.467,0.214c-0.099,0.09 -0.195,0.25 -0.286,0.48l-2.547,6.316c-0.214,0.523 -0.418,0.928 -0.613,1.216c-0.195,0.287 -0.404,0.486 -0.627,0.597c-0.223,0.111 -0.484,0.166 -0.784,0.166c-0.457,0 -0.816,-0.121 -1.077,-0.362c-0.262,-0.241 -0.392,-0.532 -0.392,-0.871c0,-0.245 0.057,-0.435 0.17,-0.572c0.114,-0.137 0.266,-0.205 0.458,-0.205c0.184,0 0.327,0.059 0.427,0.176c0.1,0.117 0.176,0.274 0.228,0.47l0.056,0.227c0.025,0.162 0.078,0.282 0.158,0.358c0.081,0.076 0.176,0.114 0.286,0.114c0.119,0 0.231,-0.033 0.338,-0.1c0.106,-0.067 0.217,-0.19 0.333,-0.369c0.116,-0.179 0.243,-0.438 0.382,-0.775Z" style="fill-rule:nonzero;"/></g><path d="M20.771,28.147c-0.065,0.113 -0.401,0.697 -0.908,1.352c-0.147,0.189 -0.528,0.605 -0.575,0.657c-0.533,0.581 -1.039,0.992 -1.167,1.08c-0.022,0.015 -1.095,0.923 -2.561,1.538c-0.29,0.121 -1.785,0.78 -3.789,0.879c-0.314,0.015 -0.509,-0.079 -0.51,0.058c-0.001,0.079 0.027,0.066 0.099,0.102c0.04,0.021 0.294,0.128 0.472,0.234c0.208,0.124 1.641,0.91 3.498,1.007c2.143,0.111 3.891,-0.321 6.177,-1.682c0.842,-0.501 2.724,-1.921 3.754,-2.492c2.387,-1.321 4.275,-1.571 6.484,-1.106c0.344,0.072 1.597,0.448 2.656,1.358c0.14,0.12 0.343,0.293 0.277,0.563c-0.05,0.205 -0.361,0.478 -0.751,0.146c-0.13,-0.11 -0.833,-0.848 -2.572,-1.278c-0.413,-0.102 -1.865,-0.272 -3.098,0.024c-0.185,0.044 -1.258,0.302 -2.226,0.827c-2.377,1.287 -3.549,2.696 -6.212,3.755c-1.49,0.592 -2.356,0.678 -3.481,0.755c-0.174,0.012 -1.174,0.018 -1.86,-0.1c-0.921,-0.159 -1.651,-0.295 -3.108,-1.081c-0.194,-0.104 -0.877,-0.44 -2.059,-1.517c-0.301,-0.274 -0.264,-0.308 -0.901,-0.958c-0.442,-0.452 -0.477,-0.653 -0.588,-0.661c-0.094,-0.007 -0.088,0.021 -0.134,0.103c-0.091,0.162 -0.072,0.171 -0.3,0.549c-0.39,0.649 -0.355,0.666 -0.685,1.277c-3.128,5.79 -3.056,5.859 -3.475,6.182c-0.614,0.473 -1.787,0.52 -2.282,-0.517c-0.177,-0.37 -0.186,-0.981 0.028,-1.404c0.005,-0.011 2.858,-5.352 3.153,-5.856c0.295,-0.503 0.282,-0.551 0.16,-0.661c-0.302,-0.272 -1.044,-0.757 -2.064,-2.12c-0.378,-0.506 -0.927,-1.443 -1.146,-1.951c-0.107,-0.248 -0.476,-0.971 -0.797,-2.319c-0.045,-0.189 -0.258,-1.082 -0.26,-2.408c-0.003,-1.806 0.605,-5.098 3.226,-7.749c0.186,-0.188 1.129,-1.193 2.737,-2.045c2.129,-1.129 4.171,-1.25 4.549,-1.273c2.44,-0.145 4.107,0.555 4.256,0.564c0.128,0.007 0.166,-0.087 0.171,-0.097c0.444,-0.872 3.764,-7.034 4.072,-7.528c0.042,-0.067 0.042,-0.07 0.023,-0.147c-0.014,-0.057 -0.025,-0.055 -0.084,-0.056c-0.515,-0.003 -1.348,0.35 -1.582,-0.239c-0.162,-0.408 0.151,-1.836 0.979,-2.711c0.138,-0.146 0.625,-0.696 1.619,-0.997c0.269,-0.081 0.991,-0.198 1.55,0.035c0.508,0.212 0.742,0.555 0.916,1.028c0.214,0.58 0.338,1.839 -0.153,3.249c-0.225,0.644 -0.666,1.402 -1.328,2.626c-0.227,0.421 -0.947,1.717 -1.062,1.947c-0.05,0.099 -0.059,0.092 -0.662,1.217c-0.279,0.52 -0.298,0.508 -0.572,1.032c-0.503,0.96 -0.818,1.468 -1.01,1.856c-0.075,0.152 -0.134,0.2 0.08,0.366c0.104,0.081 0.772,0.566 1.337,1.146c2.435,2.499 3.221,5.516 3.226,7.852c0,0.029 -0.018,1.469 -0.346,2.702c-0.388,1.455 -0.895,2.359 -1.189,2.884Zm-15.504,-14.024c-1.711,1.228 -2.391,2.333 -2.884,3.084c-0.124,0.189 -0.821,1.412 -1.156,2.718c-0.018,0.072 -0.783,2.412 -0.04,5.107c0.126,0.457 0.555,1.798 0.617,1.839c0.001,0.001 0.116,0.028 0.129,-0.053c0.017,-0.115 -0.321,-0.804 -0.307,-2.632c0.003,-0.355 0.099,-2.406 1.048,-4.278c0.336,-0.663 1.039,-2.184 2.816,-3.63c1.123,-0.914 2.266,-1.39 2.479,-1.479c3.53,-1.471 5.278,-0.396 5.581,-0.455c0.124,-0.024 0.153,-0.182 0.445,-0.7c0.423,-0.748 0.418,-0.763 0.391,-0.832c-0.025,-0.065 -0.034,-0.089 -0.825,-0.278c-0.914,-0.219 -2.469,-0.412 -3.964,-0.15c-1.101,0.193 -1.478,0.291 -2.545,0.74c-0.944,0.397 -1.651,0.903 -1.784,0.998Zm13.305,15.551c0.282,-0.293 0.272,-0.3 0.544,-0.617c0.255,-0.297 0.412,-0.551 0.461,-0.62c0.896,-1.242 1.278,-2.465 1.35,-2.695c0.368,-1.178 0.421,-1.759 0.475,-2.327c0.28,-2.955 -0.955,-5.268 -1.027,-5.427c-0.225,-0.495 -0.981,-1.809 -1.934,-2.717c-0.646,-0.616 -0.966,-0.846 -1.032,-0.899c-0.172,-0.141 -0.214,-0.164 -0.307,-0.11c-0.02,0.012 -0.016,0.015 -0.879,1.621c-0.126,0.235 0.004,0.236 0.374,0.697c0.033,0.041 0.348,0.434 0.402,0.512c2.868,4.172 1.853,9.046 -0.804,12.062c-1.508,1.712 -3.248,2.356 -3.564,2.489c-0.941,0.398 -2.051,0.605 -2.336,0.644c-0.482,0.065 -0.499,0.034 -0.537,0.036c-0.139,0.008 -0.074,0.133 -0.068,0.144c0,0.001 0.298,0.238 0.393,0.281c0.139,0.062 1.609,0.139 2.844,-0.073c3.434,-0.588 5.377,-2.729 5.646,-2.999Zm-14.026,0.736c0.194,0.164 0.264,0.26 0.395,0.041c0.007,-0.011 0.492,-0.947 0.922,-1.708c0.24,-0.426 0.139,-0.489 0.094,-0.605c-0.73,-1.892 -0.858,-2.628 -0.985,-4.262c-0.007,-0.091 -0.097,-1.728 0.371,-3.405c0.177,-0.635 0.458,-1.659 1.274,-2.997c0.609,-0.997 1.079,-1.4 1.195,-1.5c0.013,-0.011 0.131,-0.112 0.147,-0.153c0.009,-0.023 -0.029,-0.09 -0.052,-0.093c-0.16,-0.024 -0.132,0.069 -0.921,0.513c-0.358,0.201 -1.149,0.781 -1.639,1.292c-0.748,0.782 -0.747,0.784 -1.347,1.683c-0.275,0.412 -0.859,1.531 -1.068,2.258c-0.185,0.645 -1.154,3.467 0.419,7.118c0.044,0.102 0.252,0.585 0.617,1.238c0.132,0.236 0.278,0.321 0.578,0.579Zm14.73,-28.915c-0.338,0.273 -0.8,0.699 -1.032,1.706c-0.019,0.081 -0.028,0.093 0.039,0.142c0.118,0.087 0.86,-0.197 1.39,0.083c0.399,0.211 0.366,0.722 0.274,0.928c-0.132,0.294 -1.218,2.205 -1.432,2.649c-0.036,0.074 -0.768,1.433 -0.835,1.557c-0.011,0.02 -0.656,1.177 -1.2,2.225c-0.049,0.093 -0.334,0.642 -0.627,1.158c-0.047,0.082 -0.037,0.086 -0.562,1.038c-0.065,0.118 -0.563,1.068 -0.709,1.309c-0.116,0.193 -1.191,2.24 -1.63,3.016c-0.021,0.038 -2.285,4.223 -2.337,4.329c-0.132,0.272 -8.317,15.403 -8.515,15.797c-0.254,0.506 -0.618,0.868 -0.408,1.394c0.227,0.567 0.983,0.486 1.296,-0.099l2.648,-4.948c1.062,-1.981 1.072,-1.975 1.219,-2.256c1.122,-2.147 1.152,-2.131 1.25,-2.318c0.488,-0.938 0.511,-0.925 1.001,-1.86c0.41,-0.783 0.432,-0.769 0.87,-1.617c0.045,-0.086 0.053,-0.081 0.573,-1.068c0.199,-0.377 0.463,-0.817 0.598,-1.096c0.15,-0.311 1.513,-2.805 1.544,-2.867c0.077,-0.154 0.474,-0.87 0.516,-0.945c0.063,-0.114 0.059,-0.114 0.768,-1.43c0.916,-1.701 1.949,-3.595 2.786,-5.19c0.036,-0.069 0.047,-0.062 0.465,-0.853c0.067,-0.127 0.593,-1.063 0.866,-1.581c0.578,-1.095 3.135,-5.745 3.286,-6.099c0.631,-1.481 0.49,-3.162 -0.003,-3.489c-0.382,-0.253 -0.804,-0.172 -1.166,-0.087c-0.39,0.092 -0.862,0.424 -0.93,0.471Zm-11.86,16.254c-0.03,0.049 -1.272,1.866 -1.543,4.346c-0.147,1.34 -0.03,2.291 0.105,3.173c0.129,0.846 0.361,1.466 0.487,1.924c0.039,0.14 0.087,0.191 0.184,0.083c0.018,-0.02 0.002,-0.029 0.151,-0.309c0.475,-0.892 0.496,-0.88 0.783,-1.466c0.012,-0.025 1.33,-2.427 2.343,-4.326c0.175,-0.328 1.24,-2.297 1.295,-2.411c0.088,-0.183 0.34,-0.587 0.842,-1.554c0.057,-0.111 0.071,-0.103 0.747,-1.368c0.115,-0.215 0.128,-0.205 0.243,-0.421c0.009,-0.016 0.092,-0.173 0.085,-0.214c-0.009,-0.05 -0.023,-0.131 -0.59,-0.247c-0.693,-0.141 -0.895,-0.093 -1.319,-0.102c-0.47,-0.01 -1.562,0.467 -2.467,1.288c-0.846,0.767 -1.311,1.555 -1.344,1.603Zm10.452,5.276c0.002,-0.059 0.295,-2.928 -1.631,-5.559c-0.381,-0.521 -0.448,-0.556 -0.519,-0.555c-0.12,0.002 -0.095,0.048 -0.145,0.158c-0.159,0.352 -0.363,0.692 -0.535,1.011l-4.395,8.141c-0.066,0.122 -0.807,1.502 -0.818,1.524c-0.066,0.133 -0.45,0.844 -0.511,0.946c-0.173,0.291 -0.927,1.716 -0.987,1.827c-0.095,0.176 -0.074,0.226 0.247,0.652c0.266,0.354 0.261,0.422 0.565,0.405c0.155,-0.009 3.575,-0.022 6.243,-2.768c0.244,-0.252 0.713,-0.843 0.768,-0.924c0.713,-1.062 1.601,-2.641 1.718,-4.857Z" style="fill:#ce3a2c;"/></svg>