<?xml version="1.0" encoding="UTF-8" standalone="no"?><!DOCTYPE svg PUBLIC "-//W3C//DTD SVG 1.1//EN" "http://www.w3.org/Graphics/SVG/1.1/DTD/svg11.dtd"><svg width="100%" height="100%" viewBox="0 0 1600 1600" version="1.1" xmlns="http://www.w3.org/2000/svg" xmlns:xlink="http://www.w3.org/1999/xlink" xml:space="preserve" xmlns:serif="http://www.serif.com/" style="fill-rule:evenodd;clip-rule:evenodd;stroke-linejoin:round;stroke-miterlimit:2;"><g id="Fondo"><path d="M548.453,1549.863c-144.107,-8.761 -94.488,-152.619 -218.527,-131.419c-12.732,2.176 -157.042,66.369 -215.05,-48.543c-70.567,-139.789 78.956,-313.665 307.795,-173.383c44.527,27.296 42.986,42.92 116.27,47.514c40.452,2.536 -112.639,-46.571 -200.861,-270.211c-125.372,-317.816 65.706,-754.326 513.458,-788.331c104.879,-7.965 241.574,26.883 330.323,83.227c7.164,4.548 22.413,17.005 23.874,8.219c1.296,-7.793 14.808,-118.061 16.066,-128.331c0.901,-7.356 -1.539,-15.409 14.244,-13.611c11.244,1.281 128.325,14.618 140.44,16.927c0.632,0.12 5.746,1.095 5.48,5.889c-1.346,24.249 -34.858,256.787 -31.038,265.938c7.09,16.986 137.421,157.246 108.475,418.275c-20.781,187.396 -143.245,313.229 -164.036,334.593c-59.474,61.11 -75.083,50.019 -80.703,81.311c-18.258,101.654 -21.77,107.902 -13.154,107.224c5.029,-0.396 4.414,-4.036 62.435,-8.871c11.272,-0.939 18.754,-6.247 15.769,4.663c-8.73,31.906 -38.089,145.439 -131.093,169.477c-25.204,6.514 -125.92,0.345 -105.962,-122.521c12.863,-79.19 15.64,-83.495 8.905,-83.811c-7.784,-0.365 -194.875,74.225 -419.001,-31.378c-23.701,-11.168 -24.006,-0.129 -49.579,6.315c-109.408,27.569 -172.521,-40.601 -213.283,-61.877c-228.656,-119.345 -266.308,140.064 -136.894,140.436c47.958,0.138 174.915,-75.955 245.255,54.439c45.158,83.712 86.024,44.965 90.852,57.755c19.24,50.978 17.802,53.175 13.67,55.051c-8.213,3.728 -8.387,2.363 -34.13,5.035Zm534.359,-862.47c184.447,1.557 294.339,-62.887 299.144,-59.704c8.269,5.477 34.003,169.282 12.823,178.963c-254.758,116.45 -782.436,36.493 -1014.052,-150.103c-5.998,-4.832 -4.741,-18.431 17.127,-77.085c18.822,-50.483 66.609,-130.867 74.64,-123.592c3.935,3.565 13.863,19.81 54.487,54.569c86.653,74.143 219.244,119.746 239.762,126.803c141.381,48.627 290.468,49.925 316.069,50.148Zm-84.34,372.108c-129.325,-4.57 -182.357,-15.296 -250.289,-28.278c-210.101,-40.148 -368.832,-132.139 -373.475,-148.776c-16.223,-58.132 -12.755,-129.076 -12.205,-140.332c0.268,-5.484 -4.274,-24.711 11.623,-13.459c143.722,101.718 444.843,206.534 761.873,193.176c184.063,-7.755 251.836,-52.327 253.769,-42.375c0.129,0.665 -5.863,27.636 -15.938,56.622c-24.951,71.786 -31.913,74.386 -38.345,76.788c-139.509,52.102 -309.702,46.998 -337.012,46.633Zm-6.564,-800.249c13.566,3.329 107.646,26.413 162.013,65.099c8.696,6.188 -49.363,115.027 -153.274,191.572c-67.954,50.058 -148.948,81.064 -161.313,78.163c-51.03,-11.974 -161.739,-53.743 -159.033,-61.024c3.099,-8.34 61.829,-6.827 163.12,-89.392c62.724,-51.128 106.164,-116.708 126.936,-170.215c4.931,-12.703 4.287,-13.033 6.62,-15.125c3.156,-2.829 3.631,-0.964 14.931,0.921Zm-130.931,-12.508c22.36,-0.154 53.28,-2.456 49.503,7.811c-36.238,98.473 -166.591,218.445 -308.895,231.815c-9.138,0.859 -48.001,-32.891 -71.021,-57.501c-20.625,-22.05 -20.211,-25.336 -14.163,-31.216c101.358,-98.535 216.083,-143.834 344.575,-150.908Zm90.51,871.917c34.367,1.36 48.587,-1.837 38.874,11.882c-4.717,6.663 -55.102,83.731 -133.304,151.362c-17.394,15.043 -180.659,-27.467 -175.947,-38.901c4.097,-9.941 13.888,-0.718 95.795,-94.275c28.743,-32.831 27.827,-44.576 43.197,-42.612c11.835,1.512 59.071,9.127 131.384,12.543Zm-234.588,-31.281c11.3,2.383 28.953,3.58 20.76,13.068c-8.419,9.751 -73.541,85.173 -117.631,109.978c-14.475,8.144 -105.749,-71.38 -129.5,-100.758c-26.057,-32.23 -46.377,-54.402 -80.719,-123.484c-14.575,-29.319 46.57,43.865 307.09,101.197Zm469.452,-685.241c0.374,0.216 4.677,2.694 4.677,2.694c-28.346,172.92 -21.611,191.681 -28.927,212.795c-4.86,14.027 -198.473,5.51 -202.821,-1.185c-2.991,-4.606 63.827,-30.187 133.862,-98.264c70.037,-68.079 81.095,-97.476 93.208,-116.041Zm91.894,89.883c-1.065,8.529 -13.047,104.496 -13.495,106.586c-1.842,8.595 -38.034,15.959 -39.072,9.416c-0.04,-0.25 40.871,-320.665 50.278,-397.179c1.508,-12.266 17.801,-7.072 31.649,-5.079c9.571,1.378 3.973,19.645 -0.477,55.076c-14.526,115.647 -14.186,115.503 -28.883,231.18Zm-150.22,769.126c8.931,-56.36 9.096,-56.029 18.059,-112.579c3.951,-24.928 -0.973,-33.995 24.187,-35.756c10.299,-0.721 5.656,6.316 -11.498,107.677c-24.936,147.343 -44.675,180.214 24.283,202.361c14.791,4.75 -45.365,69.583 -74.017,40.026c-12.375,-12.766 -10.105,-15.963 18.985,-201.729Zm-59.102,-19.167c-3.764,15.382 -8.287,15.046 -54.89,28.229c-4.988,1.411 -78.299,22.148 -64.393,7.194c14.169,-15.237 60.739,-58.715 115.473,-150.218c6.812,-11.388 23.239,-9.826 22.043,-0.545c-1.511,11.722 -16.744,106.118 -18.232,115.34Zm262.126,-677.756c3.537,-26.571 4.874,-43.44 5.154,-43.715c2.737,-2.689 5.153,-0.946 20.092,34.806c6.878,16.461 -1.583,15.633 -17.729,23.189c-10.979,5.138 -9.148,-2.765 -7.517,-14.279Zm-96.829,580.458c3.454,-17.244 4.541,-41.819 13.991,-43.941c6.195,-1.392 12.45,-2.499 18.655,-3.847c10.971,-2.382 19.632,-9.18 15.199,1.153c-1.963,4.577 -3.811,3.12 -42.464,45.524c-0,0 -4.95,1.022 -5.38,1.111Z" style="fill:#e6322b;fill-opacity:1;"/><path d="M231.114,745.344c-1.872,174.327 34.929,191.724 18.029,198.364c-4.738,1.862 -47.738,13.944 -50.68,13.738c-10.788,-0.754 -33.293,-132.612 -28.922,-215.279c1.518,-28.715 4.242,-205.508 124.561,-378.956c9.24,-13.32 9.163,-23.087 22.062,-13.385c37.695,28.353 41.816,29.068 37.581,35.533c-41.321,63.068 -112.635,160.974 -122.631,359.985Z" style="fill:#e6322b;fill-opacity:1;"/><path d="M1376.403,112.327c-14.541,-3.459 -9.693,-8.652 -7.645,-23.449c3.436,-24.836 1.208,-40.017 14.14,-37.939c79.548,12.781 119.858,12.171 118.763,22.502c-0.038,0.362 -22.318,153.694 -22.924,156.018c-1.122,4.302 -2.856,6.848 -55.539,-1.985c-8.139,-1.365 -4.958,-8.921 8.196,-97.969c1.952,-13.217 -9.159,-10.28 -54.99,-17.178Z" style="fill:#e6322b;fill-opacity:1;"/><path d="M229.289,1009.842c23.612,-8.841 37.486,-14.574 40.698,-13.663c1.356,0.385 25.118,42.833 15.27,47.86c-3.602,1.839 -37.172,18.975 -46.004,20.948c-7.085,1.583 -15.015,-21.704 -20.527,-35.885c-4.871,-12.529 -1.953,-14.212 10.563,-19.261Z" style="fill:#e6322b;fill-opacity:1;"/><path d="M1420.474,272.023c35.751,5.22 50.251,4.08 49.353,13.87c-4.108,44.767 -8.282,44.875 -12.005,44.971c-3.798,0.098 -3.685,-0.834 -47.015,-6.666c-6.833,-0.92 -8.108,-3.774 -7.243,-10.286c0.639,-4.809 5.152,-38.837 6.985,-40.801c1.748,-1.874 9.131,-1.165 9.926,-1.088Z" style="fill:#e6322b;fill-opacity:1;"/></g></svg>