<?xml version="1.0" encoding="UTF-8" standalone="no"?><!DOCTYPE svg PUBLIC "-//W3C//DTD SVG 1.1//EN" "http://www.w3.org/Graphics/SVG/1.1/DTD/svg11.dtd"><svg width="100%" height="100%" viewBox="0 0 2363 2363" version="1.1" xmlns="http://www.w3.org/2000/svg" xmlns:xlink="http://www.w3.org/1999/xlink" xml:space="preserve" xmlns:serif="http://www.serif.com/" style="fill-rule:evenodd;clip-rule:evenodd;stroke-linejoin:round;stroke-miterlimit:2;"><path d="M1191.5,26.037c53.799,0.146 122.761,3.791 175.394,26.098c15.742,6.617 26.703,21.325 28.576,38.345l16.767,151.92c0.901,8.486 6.222,15.913 13.997,19.537c110.952,51.029 200.179,86.895 232.692,213.155c17.593,67.747 29.159,150.074 34.7,246.98c8.748,152.892 17.35,324.252 25.806,514.08c1.166,26.632 7.679,81.987 19.537,166.063c42.719,302.966 55.403,613.222 48.113,927.56c-0.153,6.18 -5.193,11.22 -11.372,11.372l-127.864,3.499c-7.389,0.175 -13.679,-5.531 -14.142,-12.83l-27.556,-421.207c-0.301,-4.573 -4.146,-8.174 -8.729,-8.174c-1.211,0 -2.409,0.252 -3.518,0.739c-26.341,11.275 -59.388,20.995 -99.142,29.159c-109.056,22.55 -212.912,33.582 -311.568,33.096c-98.559,-0.389 -202.269,-12.296 -311.131,-35.72c-39.754,-8.553 -72.753,-18.565 -98.996,-30.034c-1.112,-0.49 -2.313,-0.743 -3.528,-0.743c-4.53,0 -8.348,3.518 -8.719,8.033l-31.201,420.916c-0.463,7.356 -6.844,13.085 -14.288,12.83l-127.718,-4.666c-6.233,-0.155 -11.296,-5.283 -11.372,-11.518c-4.52,-314.338 10.789,-624.448 56.132,-927.123c12.539,-83.882 19.537,-139.139 20.995,-165.771c10.011,-189.828 20.071,-361.139 30.18,-513.934c6.318,-96.809 18.565,-179.039 36.741,-246.688c33.679,-125.969 123.198,-160.96 234.587,-211.114c7.79,-3.558 13.165,-10.927 14.142,-19.391l18.079,-151.775c2.027,-16.978 13.096,-31.569 28.868,-38.053c52.924,-21.87 121.886,-24.931 175.54,-24.64Zm-9.395,41.761c0.003,-0.128 0.005,-0.257 0.005,-0.385c0,-8.493 -6.871,-15.534 -15.362,-15.741l-20.989,-0.512c-8.635,-0.211 -15.913,6.721 -16.125,15.355l-0.763,31.192c-0.003,0.128 -0.005,0.257 -0.005,0.385c0,8.493 6.871,15.534 15.362,15.741l20.989,0.512c8.635,0.211 15.913,-6.721 16.125,-15.355l0.763,-31.192Zm63.999,-9.455c0,-0.019 0,-0.037 0,-0.056c0,-3.418 -2.796,-6.239 -6.214,-6.269l-39.947,-0.348c-0.019,-0 -0.037,-0 -0.056,-0c-3.419,0 -6.24,2.797 -6.269,6.216l-0.445,51.026c-0,0.019 -0,0.037 -0,0.056c0,3.418 2.796,6.239 6.214,6.269l39.947,0.348c0.019,0 0.037,0 0.056,0c3.419,0 6.24,-2.797 6.269,-6.216l0.445,-51.026Zm111.021,21.056c-6.415,-8.553 -20.557,-11.421 -42.427,-8.602c-4.779,0.544 -9.522,-1.127 -12.83,-4.52c-8.942,-9.234 -21.189,-12.976 -36.741,-11.226c-5.193,0.534 -9.087,5.142 -8.748,10.352l2.479,37.761c0.006,0.08 0.012,0.16 0.02,0.24c0.498,5.175 5.101,9.029 10.196,8.539c0.094,-0.009 0.187,-0.02 0.281,-0.031c13.608,-1.458 26.632,-7.387 39.074,-17.787c4.142,-3.488 9.412,-5.4 14.871,-5.394l29.159,0c3.199,-0 5.832,-2.633 5.832,-5.832c0,-1.262 -0.409,-2.49 -1.166,-3.499Zm-235.9,1.166c0.097,-8.553 -0.243,-14.385 -1.021,-17.496c-1.278,-4.683 -5.646,-7.898 -10.497,-7.727c-11.567,0.389 -22.404,3.548 -32.513,9.477c-4.167,2.505 -8.896,3.863 -13.705,3.937c-23.036,0.292 -34.602,4.131 -34.7,11.518c-0.097,6.512 11.372,10.206 34.408,11.081c4.787,0.186 9.464,1.644 13.559,4.228c10.011,6.221 20.8,9.671 32.367,10.352c4.77,0.206 9.109,-2.867 10.497,-7.436c0.972,-3.013 1.507,-8.991 1.604,-17.933Zm138.653,138.361l-1.604,-59.923c-0.062,-4.675 -3.926,-8.487 -8.601,-8.487c-0.244,0 -0.487,0.01 -0.73,0.031l-40.094,2.624c-6.385,0.417 -11.528,5.497 -11.955,11.81l-4.52,61.235c-0.228,3.112 -2.857,5.549 -5.978,5.54c0,0 -3.943,0 -3.947,0c-2.319,0 -4.228,-1.909 -4.228,-4.228c0,-0.097 0.003,-0.195 0.01,-0.292l4.082,-56.715c0.031,-0.401 0.046,-0.804 0.046,-1.206c0,-8.216 -6.431,-15.122 -14.626,-15.706l-32.659,-2.333c-0.182,-0.012 -0.365,-0.021 -0.547,-0.026c-7.036,-0.184 -12.976,5.388 -13.158,12.344c-0.006,0.219 -0.006,0.438 0,0.658c0.486,24.397 -1.409,43.156 -5.686,56.278c-0.8,2.634 -3.246,4.447 -5.998,4.447c-3.439,0 -6.269,-2.83 -6.269,-6.269c0,-0.17 0.007,-0.34 0.021,-0.51l3.937,-53.507c0.789,-10.46 -5.851,-20.146 -15.892,-23.182l-17.641,-5.394c-0.55,-0.174 -1.11,-0.315 -1.677,-0.422c-7.859,-1.485 -15.56,3.825 -17.06,11.762c-0.102,0.541 -0.174,1.087 -0.216,1.636l-4.374,58.902c-0.076,1.144 -1.04,2.044 -2.187,2.041l-4.082,0.146c-0.097,0.002 -0.193,0.002 -0.29,0c-3.438,-0.072 -6.21,-2.895 -6.14,-6.253c0.002,-0.103 0.007,-0.205 0.014,-0.308l4.52,-61.526c0.098,-1.809 -0.306,-3.624 -1.166,-5.249l-19.974,-34.7c-1.489,-2.545 -4.225,-4.114 -7.173,-4.114c-4.297,0 -7.921,3.332 -8.281,7.614l-11.664,160.522c-0.351,5.027 2.859,9.691 7.727,11.226l16.183,4.957c3.209,0.967 6.627,-0.808 7.581,-3.937l8.894,-29.159c0.666,-2.3 2.787,-3.894 5.182,-3.894c2.614,0 4.871,1.901 5.316,4.477c1.458,8.262 0.194,18.419 -3.791,30.472c-0.491,1.472 -0.741,3.014 -0.741,4.566c0,6.33 4.164,11.956 10.218,13.804l34.554,10.643c0.813,0.238 1.656,0.36 2.503,0.36c4.63,0 8.525,-3.615 8.869,-8.233l2.187,-29.451c0.098,-1.27 0.882,-2.389 2.041,-2.916l4.082,-1.604c0.388,-0.16 0.794,-0.276 1.209,-0.345c2.92,-0.483 5.709,1.456 6.179,4.297c0.071,0.428 0.087,0.863 0.048,1.296l-2.187,31.201c-0.003,0.036 -0.006,0.072 -0.009,0.108c-0.51,6.779 4.715,12.782 11.574,13.298c0.033,0.002 0.066,0.005 0.098,0.007l45.051,3.353c0.243,0.017 0.486,0.026 0.729,0.026c5.599,0 10.206,-4.607 10.206,-10.206c0,-0.009 -0,-0.017 -0,-0.026l0,-25.369c-0,-0.017 -0,-0.035 -0,-0.052c0,-3.279 2.698,-5.978 5.978,-5.978c2.584,0 4.889,1.676 5.686,4.134c2.624,7.581 3.596,16.961 2.916,28.139c-0.014,0.196 -0.022,0.393 -0.022,0.589c0,4.399 3.62,8.019 8.019,8.019c0.104,0 0.209,-0.002 0.313,-0.006l55.257,-1.458c4.315,-0.16 7.737,-3.775 7.582,-8.01c-0,-0.003 -0,-0.006 -0,-0.008l-0.875,-34.991c-0,-0.031 -0.001,-0.062 -0.001,-0.093c0,-3.519 2.896,-6.415 6.415,-6.415c2.386,0 4.583,1.331 5.687,3.446c3.888,7.873 4.957,17.204 3.208,27.993c-0.055,0.301 -0.091,0.606 -0.107,0.912c-0.221,4.073 3.015,7.61 7.168,7.835c0.27,0.015 0.542,0.015 0.812,0.001l36.012,-2.479c0.439,-0.03 0.876,-0.079 1.311,-0.146c8.299,-1.285 14.081,-9.106 12.809,-17.326c-0.07,-0.449 -0.159,-0.895 -0.269,-1.335l-7.727,-31.346c-0.417,-1.749 0.519,-3.558 2.187,-4.228l5.249,-2.333c0.888,-0.36 1.838,-0.546 2.796,-0.546c3.845,0 7.089,2.983 7.41,6.815l1.458,22.161c0.025,0.503 0.095,1.003 0.21,1.494c1.059,4.516 5.711,7.346 10.306,6.269c0.493,-0.116 0.975,-0.274 1.44,-0.473l24.494,-10.352c6.407,-2.737 9.715,-9.989 7.581,-16.621c-14.871,-46.558 -20.995,-93.213 -18.37,-139.965c0.033,-0.728 -0.035,-1.458 -0.203,-2.168c-0.975,-4.125 -5.108,-6.733 -9.156,-5.776c-0.706,0.167 -1.384,0.436 -2.013,0.8l-17.35,10.06c-6.198,3.608 -9.951,10.274 -9.768,17.35l2.187,78.585c0.001,0.035 0.001,0.07 0.001,0.106c0,2.799 -2.304,5.103 -5.103,5.103c-2.346,0 -4.404,-1.617 -4.958,-3.896c-6.318,-28.576 -8.699,-50.737 -7.144,-66.483c0.034,-0.357 0.054,-0.716 0.057,-1.074c0.071,-6.798 -5.398,-12.45 -12.117,-12.52c-0.355,-0.004 -0.709,0.008 -1.063,0.036l-14.288,0.875c-13.492,0.885 -24.118,12.23 -24.118,25.751c0,1.091 0.069,2.181 0.207,3.263c3.791,28.673 4.277,46.023 1.458,52.05c-0.798,1.777 -2.573,2.925 -4.522,2.925c-2.668,0 -4.882,-2.154 -4.955,-4.821Zm-395.693,563.214c24.98,152.99 38.247,276.431 39.803,370.324c1.458,90.103 -4.374,156.343 -17.496,198.721c-47.821,153.962 -82.084,301.946 -102.787,443.952c-0.732,5.234 2.716,10.215 7.873,11.372c67.796,15.309 120.866,30.617 187.203,38.053c156.878,17.301 310.742,15.989 461.593,-3.937c46.363,-6.123 83.25,-18.662 140.111,-33.825c2.871,-0.755 4.832,-3.451 4.666,-6.415c-8.165,-122.324 -34.7,-233.275 -71.149,-348.017c-27.41,-86.458 -43.885,-184.142 -43.448,-256.603c0.68,-100.308 14.142,-238.135 40.386,-413.48c0.891,-5.672 6.279,-9.615 11.955,-8.748l0.583,0.146c5.236,0.809 9.046,5.57 8.748,10.935c-5.686,81.646 -16.329,140.111 -10.643,217.529c19.731,262.921 45.78,488.76 78.147,677.519c19.828,115.277 31.784,206.157 35.866,272.64c8.748,140.159 14.677,232.595 17.787,277.306c0.463,5.868 5.646,10.33 11.518,9.914l89.519,-5.832c4.736,-0.306 8.466,-4.293 8.456,-9.039c-2.041,-285.762 -10.206,-520.495 -46.801,-788.324c-34.991,-256.457 -35.574,-431.705 -50.3,-739.191c-3.499,-71.343 -13.802,-142.93 -30.909,-214.759c-27.118,-113.722 -116.054,-148.859 -211.114,-190.411c-5.041,-2.197 -10.837,-1.872 -15.6,0.875c-130.634,75.426 -265.302,81.501 -404.003,18.225c-11.664,-5.394 -24.494,-20.12 -36.303,-24.494c-3.785,-1.378 -7.984,-0.947 -11.372,1.166c-11.372,7.29 -37.13,20.169 -77.272,38.636c-102.933,47.384 -138.945,138.799 -151.191,246.688c-20.703,182.538 -35.38,375.962 -44.031,580.272c-2.624,62.984 -11.567,149.734 -26.827,260.248c-36.158,263.99 -55.014,535.075 -56.569,813.256c-0.001,0.05 -0.001,0.1 -0.001,0.15c0,6.239 5.134,11.372 11.372,11.372c0.098,0 0.195,-0.001 0.293,-0.004l90.103,-2.479c5.458,-0.15 9.906,-4.533 10.06,-9.914c5.346,-153.67 14.968,-270.745 28.868,-351.225c14.871,-86.166 23.036,-177.143 38.053,-243.918c17.69,-79.119 30.86,-171.797 39.511,-278.035c9.623,-119.699 35.574,-266.517 39.657,-379.218c0.68,-21.189 -2.722,-85.486 -10.206,-192.889c-0.179,-2.036 1.255,-3.861 3.208,-4.082l4.082,-0.729c4.107,-0.536 7.943,2.259 8.602,6.269Zm672.707,631.301l-32.513,-313.901c-0.148,-0.904 -0.983,-1.546 -1.895,-1.458l-0.437,-0c-10.367,1.38 -11.616,72.767 -2.77,158.336l0.437,4.52c8.856,85.712 24.712,155.388 35.137,154.399l0.437,0c0.904,-0.072 1.61,-0.837 1.61,-1.744c0,-0.051 -0.002,-0.101 -0.007,-0.151Zm-655.438,-298.917c0.009,-0.107 0.013,-0.215 0.013,-0.322c0,-2.038 -1.583,-3.757 -3.614,-3.923l-7.265,-0.596c-2.152,-0.177 -4.068,1.448 -4.246,3.6l-24.968,303.692c-0.009,0.107 -0.013,0.215 -0.013,0.322c0,2.038 1.583,3.757 3.614,3.923l7.265,0.596c2.152,0.177 4.068,-1.448 4.246,-3.6l24.968,-303.692Zm-86.246,710.394c-9.824,0.515 -17.244,13.623 -16.436,29.039c0,0 0,0.001 0,0.001c0.808,15.415 9.557,27.677 19.381,27.162c9.824,-0.515 17.244,-13.623 16.436,-29.039c-0,-0 -0,-0.001 -0,-0.001c-0.808,-15.415 -9.557,-27.677 -19.381,-27.162Zm778.209,3.797c-7.186,0.415 -12.41,12.714 -11.572,27.247c0,0 0,0 0,0c0.838,14.533 7.441,26.15 14.627,25.736c0,-0 0,-0 0,-0c7.186,-0.415 12.41,-12.714 11.572,-27.247c-0,-0 -0,-0 -0,-0c-0.838,-14.533 -7.441,-26.15 -14.627,-25.736c-0,0 -0,0 -0,0Zm-694.365,32.851c0.225,-0.894 0.338,-1.813 0.338,-2.735c0,-5.13 -3.516,-9.638 -8.491,-10.888l-28.847,-7.246c-0.894,-0.225 -1.813,-0.338 -2.735,-0.338c-5.13,0 -9.639,3.517 -10.888,8.493l-7.103,28.28c-0.225,0.894 -0.338,1.813 -0.338,2.735c0,5.13 3.516,9.638 8.491,10.888l28.847,7.246c0.894,0.225 1.813,0.338 2.735,0.338c5.13,0 9.639,-3.517 10.888,-8.493l7.103,-28.28Zm664.96,-4.766c-1.05,-6.63 -6.824,-11.561 -13.536,-11.561c-0.718,0 -1.435,0.056 -2.144,0.169l-19.008,3.011c-6.63,1.05 -11.561,6.824 -11.561,13.536c0,0.718 0.056,1.435 0.169,2.144l3.557,22.464c1.05,6.63 6.824,11.561 13.536,11.561c0.718,0 1.435,-0.056 2.144,-0.169l19.008,-3.011c6.63,-1.05 11.561,-6.824 11.561,-13.536c0,-0.718 -0.056,-1.435 -0.169,-2.144l-3.557,-22.464Zm-598.873,11.996c0.025,-0.291 0.038,-0.584 0.038,-0.877c0,-5.189 -4.015,-9.57 -9.184,-10.022l-32.533,-2.847c-0.292,-0.026 -0.585,-0.038 -0.878,-0.038c-5.189,0 -9.57,4.015 -10.022,9.184l-2.897,33.115c-0.025,0.291 -0.038,0.584 -0.038,0.877c0,5.189 4.015,9.57 9.184,10.022l32.533,2.847c0.292,0.026 0.585,0.038 0.878,0.038c5.189,0 9.57,-4.015 10.022,-9.184l2.897,-33.115Zm537.683,-2.697c-1.086,-6.224 -7.102,-10.452 -13.326,-9.366l-28.726,5.014c-6.224,1.086 -10.452,7.102 -9.366,13.326l5.014,28.726c1.086,6.224 7.102,10.452 13.326,9.366l28.726,-5.014c6.224,-1.086 10.452,-7.102 9.366,-13.326l-5.014,-28.726Zm-459.444,16.581c0.088,-0.549 0.132,-1.104 0.132,-1.66c0,-5.135 -3.767,-9.553 -8.838,-10.365l-42.899,-6.871c-0.549,-0.088 -1.105,-0.132 -1.662,-0.132c-5.134,0 -9.553,3.767 -10.365,8.836l-5.441,33.975c-0.088,0.549 -0.132,1.104 -0.132,1.66c0,5.135 3.767,9.553 8.838,10.365l42.899,6.871c0.549,0.088 1.105,0.132 1.662,0.132c5.134,0 9.553,-3.767 10.365,-8.836l5.441,-33.975Zm392.805,-5.934c-0.77,-6.754 -6.961,-11.679 -13.715,-10.91l-46.935,5.348c-6.754,0.77 -11.679,6.961 -10.91,13.715l3.598,31.58c0.77,6.754 6.961,11.679 13.715,10.91l46.935,-5.348c6.754,-0.77 11.679,-6.961 10.91,-13.715l-3.598,-31.58Zm-318.298,10.34c0.025,-0.273 0.037,-0.546 0.037,-0.82c0,-4.65 -3.588,-8.58 -8.219,-9.002l-43.27,-3.937c-4.938,-0.449 -9.371,3.244 -9.821,8.182l-3.435,37.751c-0.025,0.273 -0.037,0.546 -0.037,0.82c0,4.65 3.588,8.58 8.219,9.002l43.27,3.937c4.938,0.449 9.371,-3.244 9.821,-8.182l3.435,-37.751Zm80.258,4.346c0.007,-0.152 0.01,-0.304 0.01,-0.456c0,-5.347 -4.263,-9.807 -9.604,-10.05l-46.315,-2.102c-5.513,-0.25 -10.255,4.079 -10.506,9.592l-1.64,36.121c-0.007,0.152 -0.01,0.304 -0.01,0.456c0,5.347 4.263,9.807 9.604,10.05l46.315,2.102c5.513,0.25 10.255,-4.079 10.506,-9.592l1.64,-36.121Zm78.69,-5.567c-0.043,-3.519 -2.974,-6.379 -6.492,-6.336l-52.191,0.637c-3.489,0.043 -6.337,2.925 -6.337,6.415c0,0.026 0,0.053 0,0.079l0.545,44.61c0.043,3.519 2.974,6.379 6.492,6.336l52.191,-0.637c3.489,-0.043 6.337,-2.925 6.337,-6.415c0,-0.026 -0,-0.053 -0,-0.079l-0.545,-44.61Zm73.368,0.634c-0.408,-5.85 -5.335,-10.445 -11.199,-10.445c-0.262,0 -0.523,0.009 -0.784,0.027l-38.687,2.706c-6.143,0.43 -10.845,5.838 -10.416,11.982l2.379,34.033c0.408,5.85 5.335,10.445 11.199,10.445c0.262,0 0.523,-0.009 0.784,-0.027l38.687,-2.706c6.143,-0.43 10.845,-5.838 10.416,-11.982l-2.379,-34.033Zm426.991,425.051c9.914,-0.292 12.198,-17.641 6.852,-52.05c-0.385,-2.121 -1.838,-3.853 -3.791,-4.52c-1.555,-0.583 -3.256,-0.826 -5.103,-0.729c-1.847,0 -3.548,0.389 -5.103,1.166c-1.867,0.841 -3.15,2.682 -3.353,4.811c-3.013,34.602 0.486,51.709 10.497,51.321Zm-1132.843,-20.412c-0.292,-1.166 0,-7.338 0.875,-18.516c0.507,-5.935 -3.139,-11.465 -8.748,-13.268l-6.123,-2.187c-0.432,-0.147 -0.877,-0.254 -1.328,-0.321c-4.194,-0.619 -8.164,2.387 -8.794,6.66c-0.068,0.459 -0.096,0.924 -0.083,1.388l1.166,34.991c0.002,0.072 0.004,0.144 0.008,0.217c0.261,5.753 5.276,10.269 11.108,10.004c0.085,-0.004 0.171,-0.009 0.256,-0.015c4.763,-0.389 8.505,-2.138 11.226,-5.249c1.301,-1.494 3.187,-2.353 5.168,-2.353c1.913,0 3.741,0.801 5.038,2.207c7.581,8.067 18.565,10.74 32.95,8.019c4.946,-0.889 8.809,-4.693 9.623,-9.477c2.624,-16.621 3.208,-27.07 1.75,-31.346c-3.384,-10.064 -12.875,-16.887 -23.493,-16.887c-13.597,0 -24.785,11.189 -24.785,24.785c0,0.332 0.007,0.664 0.02,0.995c0.292,5.832 0.243,9.282 -0.146,10.352c-0.464,1.16 -1.593,1.925 -2.843,1.925c-1.25,0 -2.379,-0.765 -2.843,-1.925Zm1058.632,6.269c11.858,17.01 23.036,23.036 33.533,18.079c4.06,-1.874 7.723,-4.579 10.743,-7.933c11.613,-12.898 11.143,-32.54 -1.041,-43.511c-3.151,-2.837 -6.906,-4.933 -11.014,-6.146c-5.637,-1.652 -14.628,0.146 -26.972,5.394c-3.229,1.426 -6.792,1.833 -10.206,1.166l-18.079,-3.062c-0.386,-0.064 -0.776,-0.096 -1.167,-0.096c-3.919,0 -7.144,3.225 -7.144,7.144c0,0.032 0,0.064 0.001,0.096c0.486,19.245 1.409,31.735 2.77,37.47c0.199,0.847 0.506,1.663 0.914,2.43c2.704,5.085 9.287,6.951 14.583,4.135c0.828,-0.44 1.597,-0.98 2.29,-1.608c0.292,-0.292 1.166,-4.228 2.624,-11.81c0.393,-2.136 2.273,-3.702 4.445,-3.702c1.484,0 2.877,0.731 3.72,1.952Zm-983.501,-37.47c-0,-0 -0,-0 -0.001,-0c-7.758,-0.014 -14.162,11.493 -14.187,25.49c-0.024,13.996 6.339,25.525 14.097,25.539c0,0 0,0 0.001,0c7.758,0.014 14.162,-11.493 14.187,-25.49c0.024,-13.996 -6.339,-25.525 -14.097,-25.539Z" style="fill:#010100;fill-rule:nonzero;"/><path d="M1269.356,220.821c2.819,-6.026 2.333,-23.376 -1.458,-52.05c-0.138,-1.082 -0.207,-2.172 -0.207,-3.263c0,-13.521 10.626,-24.866 24.118,-25.751l14.288,-0.875c0.354,-0.027 0.708,-0.039 1.063,-0.036c6.718,0.07 12.188,5.722 12.117,12.52c-0.004,0.359 -0.023,0.717 -0.057,1.074c-1.555,15.746 0.826,37.907 7.144,66.483c0.555,2.279 2.613,3.896 4.958,3.896c2.799,0 5.103,-2.304 5.103,-5.103c0,-0.035 -0,-0.07 -0.001,-0.106l-2.187,-78.585c-0.183,-7.076 3.57,-13.742 9.768,-17.35l17.35,-10.06c0.629,-0.364 1.307,-0.633 2.013,-0.8c4.048,-0.957 8.181,1.651 9.156,5.776c0.168,0.71 0.236,1.44 0.203,2.168c-2.624,46.752 3.499,93.407 18.37,139.965c2.133,6.632 -1.175,13.884 -7.581,16.621l-24.494,10.352c-0.465,0.199 -0.947,0.357 -1.44,0.473c-4.594,1.078 -9.246,-1.752 -10.306,-6.269c-0.115,-0.49 -0.185,-0.99 -0.21,-1.494l-1.458,-22.161c-0.321,-3.832 -3.564,-6.815 -7.41,-6.815c-0.958,0 -1.908,0.185 -2.796,0.546l-5.249,2.333c-1.668,0.67 -2.604,2.479 -2.187,4.228l7.727,31.346c0.11,0.441 0.2,0.886 0.269,1.335c1.273,8.22 -4.51,16.042 -12.809,17.326c-0.435,0.067 -0.872,0.116 -1.311,0.146l-36.012,2.479c-0.27,0.014 -0.542,0.013 -0.812,-0.001c-4.153,-0.225 -7.389,-3.762 -7.168,-7.835c0.017,-0.306 0.052,-0.61 0.107,-0.912c1.75,-10.789 0.68,-20.12 -3.208,-27.993c-1.104,-2.115 -3.301,-3.446 -5.687,-3.446c-3.519,0 -6.415,2.896 -6.415,6.415c0,0.031 0,0.062 0.001,0.093l0.875,34.991c0,0.003 0,0.006 0,0.008c0.155,4.235 -3.267,7.851 -7.582,8.01l-55.257,1.458c-0.104,0.004 -0.209,0.006 -0.313,0.006c-4.399,0 -8.019,-3.62 -8.019,-8.019c0,-0.197 0.007,-0.393 0.022,-0.589c0.68,-11.178 -0.292,-20.557 -2.916,-28.139c-0.797,-2.458 -3.102,-4.134 -5.686,-4.134c-3.279,0 -5.978,2.698 -5.978,5.978c0,0.017 0,0.035 0,0.052l0,25.369c0,0.009 0,0.017 0,0.026c0,5.599 -4.607,10.206 -10.206,10.206c-0.243,0 -0.486,-0.009 -0.729,-0.026l-45.051,-3.353c-0.033,-0.002 -0.066,-0.005 -0.098,-0.007c-6.859,-0.516 -12.084,-6.519 -11.574,-13.298c0.003,-0.036 0.006,-0.072 0.009,-0.108l2.187,-31.201c0.039,-0.433 0.023,-0.868 -0.048,-1.296c-0.47,-2.841 -3.26,-4.78 -6.179,-4.297c-0.415,0.069 -0.82,0.184 -1.209,0.345l-4.082,1.604c-1.159,0.527 -1.943,1.646 -2.041,2.916l-2.187,29.451c-0.344,4.617 -4.239,8.233 -8.869,8.233c-0.847,0 -1.69,-0.121 -2.503,-0.36l-34.554,-10.643c-6.054,-1.849 -10.218,-7.474 -10.218,-13.804c0,-1.552 0.25,-3.094 0.741,-4.566c3.985,-12.053 5.249,-22.21 3.791,-30.472c-0.445,-2.576 -2.701,-4.477 -5.316,-4.477c-2.394,0 -4.515,1.594 -5.182,3.894l-8.894,29.159c-0.955,3.129 -4.373,4.904 -7.581,3.937l-16.183,-4.957c-4.868,-1.535 -8.079,-6.2 -7.727,-11.226l11.664,-160.522c0.36,-4.281 3.985,-7.614 8.281,-7.614c2.949,0 5.685,1.569 7.173,4.114l19.974,34.7c0.861,1.625 1.264,3.44 1.166,5.249l-4.52,61.526c-0.007,0.103 -0.012,0.205 -0.014,0.308c-0.07,3.359 2.701,6.181 6.14,6.253c0.097,0.002 0.193,0.002 0.29,-0l4.082,-0.146c1.147,0.003 2.111,-0.897 2.187,-2.041l4.374,-58.902c0.042,-0.549 0.114,-1.095 0.216,-1.636c1.5,-7.938 9.201,-13.247 17.06,-11.762c0.567,0.107 1.127,0.248 1.677,0.422l17.641,5.394c10.041,3.035 16.681,12.722 15.892,23.182l-3.937,53.507c-0.014,0.17 -0.021,0.34 -0.021,0.51c0,3.439 2.83,6.269 6.269,6.269c2.753,0 5.198,-1.813 5.998,-4.447c4.277,-13.122 6.172,-31.881 5.686,-56.278c-0.006,-0.219 -0.006,-0.438 -0,-0.658c0.182,-6.956 6.122,-12.528 13.158,-12.344c0.183,0.005 0.365,0.013 0.547,0.026l32.659,2.333c8.195,0.584 14.626,7.49 14.626,15.706c0,0.403 -0.015,0.805 -0.046,1.206l-4.082,56.715c-0.007,0.097 -0.01,0.194 -0.01,0.292c0,2.319 1.909,4.228 4.228,4.228c0.003,0 3.947,-0 3.947,-0c3.121,0.008 5.749,-2.428 5.978,-5.54l4.52,-61.235c0.427,-6.313 5.57,-11.392 11.955,-11.81l40.094,-2.624c0.243,-0.021 0.486,-0.031 0.73,-0.031c4.676,0 8.539,3.812 8.601,8.487l1.604,59.923c0.073,2.667 2.287,4.821 4.955,4.821c1.948,0 3.723,-1.148 4.522,-2.925Z" style="fill:#fff;fill-rule:nonzero;"/><path d="M864.186,782.14c-0.659,-4.01 -4.495,-6.805 -8.602,-6.269l-4.082,0.729c-1.952,0.221 -3.387,2.047 -3.208,4.082c7.484,107.404 10.886,171.7 10.206,192.889c-4.082,112.701 -30.034,259.519 -39.657,379.218c-8.651,106.237 -21.821,198.916 -39.511,278.035c-15.017,66.775 -23.182,157.752 -38.053,243.918c-13.899,80.48 -23.522,197.555 -28.868,351.225c-0.154,5.381 -4.602,9.765 -10.06,9.914l-90.103,2.479c-0.098,0.003 -0.195,0.004 -0.293,0.004c-6.239,0 -11.372,-5.134 -11.372,-11.372c0,-0.05 0,-0.1 0.001,-0.15c1.555,-278.181 20.412,-549.266 56.569,-813.256c15.26,-110.514 24.202,-197.263 26.827,-260.248c8.651,-204.31 23.328,-397.734 44.031,-580.272c12.247,-107.89 48.259,-199.304 151.191,-246.688c40.143,-18.468 65.9,-31.346 77.272,-38.636c3.388,-2.114 7.587,-2.544 11.372,-1.166c11.81,4.374 24.64,19.099 36.303,24.494c138.702,63.276 273.369,57.201 404.003,-18.225c4.763,-2.747 10.56,-3.072 15.6,-0.875c95.06,41.552 183.996,76.689 211.114,190.411c17.107,71.829 27.41,143.416 30.909,214.759c14.725,307.486 15.309,482.734 50.3,739.191c36.595,267.829 44.76,502.562 46.801,788.324c0.01,4.746 -3.72,8.733 -8.456,9.039l-89.519,5.832c-5.872,0.416 -11.055,-4.046 -11.518,-9.914c-3.11,-44.711 -9.039,-137.146 -17.787,-277.306c-4.082,-66.483 -16.038,-157.364 -35.866,-272.64c-32.367,-188.758 -58.416,-414.598 -78.147,-677.519c-5.686,-77.418 4.957,-135.883 10.643,-217.529c0.298,-5.364 -3.512,-10.126 -8.748,-10.935l-0.583,-0.146c-5.676,-0.867 -11.064,3.076 -11.955,8.748c-26.243,175.345 -39.705,313.172 -40.386,413.48c-0.437,72.461 16.038,170.145 43.448,256.603c36.449,114.742 62.984,225.694 71.149,348.017c0.167,2.964 -1.794,5.66 -4.666,6.415c-56.861,15.163 -93.747,27.701 -140.111,33.825c-150.851,19.926 -304.716,21.238 -461.593,3.937c-66.338,-7.436 -119.408,-22.744 -187.203,-38.053c-5.157,-1.157 -8.605,-6.138 -7.873,-11.372c20.703,-142.006 54.965,-289.99 102.787,-443.952c13.122,-42.378 18.954,-108.619 17.496,-198.721c-1.555,-93.893 -14.823,-217.335 -39.803,-370.324Z" style="fill:#fff;fill-rule:nonzero;"/><path d="M1536.893,1413.441c0.004,0.05 0.007,0.101 0.007,0.151c0,0.907 -0.706,1.672 -1.61,1.744l-0.437,0c-10.425,0.989 -26.281,-68.687 -35.137,-154.399l-0.437,-4.52c-8.846,-85.569 -7.597,-156.955 2.77,-158.336l0.437,0c0.912,-0.088 1.747,0.554 1.895,1.458l32.513,313.901Z" style="fill:#fff;fill-rule:nonzero;"/><path d="M881.756,1110.87l-25.569,310.999c-0.012,0.149 -0.143,0.259 -0.291,0.247l-14.574,-1.198c-0.149,-0.012 -0.259,-0.143 -0.247,-0.291l25.569,-310.999c0.012,-0.149 0.143,-0.259 0.291,-0.247l14.574,1.198c0.149,0.012 0.259,0.143 0.247,0.291Z" style="fill:#fff;"/><path d="M778.774,1853.957c-0.813,-15.509 6.552,-28.521 16.436,-29.039c9.884,-0.518 18.568,11.653 19.381,27.162c0.813,15.509 -6.552,28.521 -16.436,29.039c-9.884,0.518 -18.568,-11.653 -19.381,-27.162Z" style="fill:#fff;"/><path d="M1561.846,1855.961c-0.843,-14.621 4.342,-26.83 11.573,-27.246c7.23,-0.417 13.784,11.115 14.627,25.736c0.843,14.621 -4.342,26.83 -11.573,27.246c-7.23,0.417 -13.784,-11.115 -14.627,-25.736Z" style="fill:#fff;"/><path d="M881.6,1851.424l-12.198,48.564c-0.104,0.412 -0.522,0.663 -0.934,0.559l-49.129,-12.34c-0.412,-0.104 -0.663,-0.522 -0.559,-0.934l12.198,-48.564c0.104,-0.412 0.522,-0.663 0.934,-0.559l49.129,12.34c0.412,0.104 0.663,0.522 0.559,0.934Z" style="fill:#fff;"/><path d="M1542.016,1844.192l7.552,47.68c0.081,0.512 -0.269,0.994 -0.781,1.075l-44.224,7.004c-0.512,0.081 -0.994,-0.269 -1.075,-0.781l-7.552,-47.68c-0.081,-0.512 0.269,-0.994 0.781,-1.075l44.224,-7.004c0.512,-0.081 0.994,0.269 1.075,0.781Z" style="fill:#fff;"/><path d="M945.956,1859.461l-4.531,51.784c-0.033,0.379 -0.368,0.66 -0.748,0.627l-51.203,-4.48c-0.379,-0.033 -0.66,-0.368 -0.627,-0.748l4.531,-51.784c0.033,-0.379 0.368,-0.66 0.748,-0.627l51.203,4.48c0.379,0.033 0.66,0.368 0.627,0.748Z" style="fill:#fff;"/><path d="M1480.979,1855.53l8.702,49.862c0.075,0.43 -0.213,0.839 -0.642,0.914l-49.862,8.702c-0.43,0.075 -0.839,-0.213 -0.914,-0.642l-8.702,-49.862c-0.075,-0.43 0.213,-0.839 0.642,-0.914l49.862,-8.702c0.43,-0.075 0.839,0.213 0.914,0.642Z" style="fill:#fff;"/><path d="M1024.925,1873.025l-8.535,53.284c-0.063,0.392 -0.432,0.66 -0.825,0.597l-62.209,-9.964c-0.392,-0.063 -0.66,-0.432 -0.597,-0.825l8.535,-53.284c0.063,-0.392 0.432,-0.66 0.825,-0.597l62.209,9.964c0.392,0.063 0.66,0.432 0.597,0.825Z" style="fill:#fff;"/><path d="M1414.877,1865.277l6.211,54.517c0.053,0.466 -0.282,0.888 -0.748,0.941l-69.872,7.961c-0.466,0.053 -0.888,-0.282 -0.941,-0.748l-6.211,-54.517c-0.053,-0.466 0.282,-0.888 0.748,-0.941l69.872,-7.961c0.466,-0.053 0.888,0.282 0.941,0.748Z" style="fill:#fff;"/><path d="M1098.649,1878.701l-4.962,54.521c-0.031,0.341 -0.333,0.592 -0.674,0.561l-60.038,-5.464c-0.341,-0.031 -0.592,-0.333 -0.561,-0.674l4.962,-54.521c0.031,-0.341 0.333,-0.592 0.674,-0.561l60.038,5.464c0.341,0.031 0.592,0.333 0.561,0.674Z" style="fill:#fff;"/><path d="M1178.569,1882.072l-2.49,54.841c-0.017,0.38 -0.34,0.675 -0.721,0.658l-65.036,-2.953c-0.38,-0.017 -0.675,-0.34 -0.658,-0.721l2.49,-54.841c0.017,-0.38 0.34,-0.675 0.721,-0.658l65.036,2.953c0.38,0.017 0.675,0.34 0.658,0.721Z" style="fill:#fff;"/><path d="M1256.761,1879.89l0.691,56.56c0.003,0.243 -0.192,0.442 -0.435,0.445l-64.141,0.784c-0.243,0.003 -0.442,-0.192 -0.445,-0.435l-0.691,-56.56c-0.003,-0.243 0.192,-0.442 0.435,-0.445l64.141,-0.784c0.243,-0.003 0.442,0.192 0.445,0.435Z" style="fill:#fff;"/><path d="M1329.472,1876.068l3.839,54.895c0.03,0.424 -0.29,0.792 -0.714,0.822l-59.549,4.164c-0.424,0.03 -0.792,-0.29 -0.822,-0.714l-3.839,-54.895c-0.03,-0.424 0.29,-0.792 0.714,-0.822l59.549,-4.164c0.424,-0.03 0.792,0.29 0.822,0.714Z" style="fill:#fff;"/></svg>